<svg xmlns="http://www.w3.org/2000/svg" width="284" height="25.582" viewBox="0 0 284 25.582"><defs><style>.a{fill:#55565a;}.b{fill:#8c0b42;}.c{fill:#ffca38;}.d,.e{fill:none;}.d{stroke:#55565a;stroke-miterlimit:10;stroke-width:0.557px;}.f{fill:#fff;}.g{fill:#007042;}</style></defs><g transform="translate(-20.3 -372)"><g transform="translate(112.021 373.178)"><g transform="translate(0 9.869)"><path class="a" d="M219.228,406.73a11.532,11.532,0,0,1-5.3,1.228c-3.928,0-6.825-2.6-6.825-6.629s2.9-6.629,6.825-6.629a7.09,7.09,0,0,1,5.008,1.62l-1.964,2.111a3.878,3.878,0,0,0-3.044-1.228,4.029,4.029,0,0,0,0,8.053,5.777,5.777,0,0,0,2.6-.589v-2.062h-2.259v-2.553h4.91l.049,6.678Z" transform="translate(-207.1 -394.602)"/><path class="a" d="M240.5,395.3h2.8v10.066h5.156v2.553H240.5V395.3Z" transform="translate(-224.1 -394.907)"/><path class="a" d="M268.825,394.7c3.928,0,6.825,2.6,6.825,6.629s-2.9,6.629-6.825,6.629-6.825-2.6-6.825-6.629S264.848,394.7,268.825,394.7Zm0,10.7a4.029,4.029,0,1,0-3.879-4.026A3.777,3.777,0,0,0,268.825,405.4Z" transform="translate(-235.044 -394.602)"/><path class="a" d="M297.2,395.3h4.665c2.21,0,4.615.442,4.615,3.192a2.932,2.932,0,0,1-2.16,2.8v.049a3,3,0,0,1,2.75,3.044c0,2.651-2.5,3.535-4.714,3.535H297.2V395.3Zm2.8,5.057h2.013c.835,0,1.768-.393,1.768-1.375,0-1.08-.982-1.277-1.866-1.277H300v2.651Zm0,5.2h2.5c.884,0,1.866-.393,1.866-1.473,0-1.228-1.326-1.375-2.21-1.375h-2.111L300,405.562Z" transform="translate(-252.96 -394.907)"/><path class="a" d="M327.05,395.3h2.259l5.45,12.619h-3.142l-1.08-2.7h-4.812l-1.08,2.7H321.6Zm1.08,3.683-1.522,3.879h3.044Z" transform="translate(-265.379 -394.907)"/><path class="a" d="M355,395.3h2.8v10.066h5.156v2.553H355Z" transform="translate(-282.38 -394.907)"/><path class="a" d="M395,395.3h2.259l5.5,12.619h-3.142l-1.08-2.7h-4.812l-1.08,2.7H389.6Zm1.08,3.683-1.522,3.879H397.6Z" transform="translate(-299.991 -394.907)"/><path class="a" d="M430.136,398.183a2.961,2.961,0,0,0-2.357-1.031,3.766,3.766,0,0,0-3.683,4.026,3.722,3.722,0,0,0,3.584,4.026,3,3,0,0,0,2.6-1.326l2.308,1.719a5.6,5.6,0,0,1-4.566,2.16c-3.928,0-6.825-2.6-6.825-6.629s2.9-6.629,6.825-6.629a5.347,5.347,0,0,1,4.272,1.866Z" transform="translate(-316.075 -394.5)"/><path class="a" d="M453.9,395.3h2.259l5.45,12.619h-3.142l-1.08-2.7h-4.861l-1.08,2.7H448.4Zm1.031,3.683-1.522,3.879h3.044Z" transform="translate(-329.919 -394.907)"/><path class="a" d="M481.6,395.3h4.174c4.026,0,7.463,1.719,7.463,6.334,0,4.075-3.339,6.285-7.071,6.285H481.6V395.3Zm2.75,10.066h1.424c2.6,0,4.517-.982,4.517-3.83,0-2.455-2.013-3.633-4.321-3.633h-1.62Z" transform="translate(-346.818 -394.907)"/><path class="a" d="M512.9,395.3h8.593v2.553H515.7v2.357h5.45v2.553H515.7v2.6h6.138v2.553H513l-.1-12.619Z" transform="translate(-362.749 -394.907)"/><path class="a" d="M539.2,395.3h4.223l2.9,8.2h.049l2.946-8.2h4.174v12.619h-2.8V398.3h-.049l-3.29,9.624h-2.111l-3.192-9.624H542v9.624h-2.8Z" transform="translate(-376.136 -394.907)"/><path class="a" d="M578.414,402.618,573.7,395.4h3.437l2.7,4.714,2.848-4.714h3.29l-4.714,7.218v5.4h-2.8l-.049-5.4Z" transform="translate(-393.696 -394.958)"/></g><g transform="translate(0.786)"><path class="a" d="M275.406,377.548A2.234,2.234,0,0,1,272.853,380a2.277,2.277,0,0,1-2.553-2.455V374.7h1.866v2.75c0,.737.245,1.129.687,1.129.491,0,.737-.344.737-1.178v-2.7h1.866l-.049,2.848Z" transform="translate(-240.054 -374.553)"/><path class="a" d="M223.137,376.077v3.83h-1.866v-3.83H219.7V374.8h5.008v1.277Z" transform="translate(-214.299 -374.604)"/><path class="a" d="M233.093,375.828l-.442,1.768h.933Zm1.228,3.977-.344-.933H232.21l-.344.933H230l1.915-5.2h2.357l1.866,5.2Z" transform="translate(-219.542 -374.502)"/><path class="a" d="M287.81,379.461l-.54-1.326a1.853,1.853,0,0,1-1.228.442,1.24,1.24,0,0,1-1.228-1.326,1.226,1.226,0,0,1,1.228-1.375,2.253,2.253,0,0,1,1.228.491l.54-1.277a4.073,4.073,0,0,0-2.111-.491,2.7,2.7,0,1,0,.049,5.4A4.986,4.986,0,0,0,287.81,379.461Z" transform="translate(-246.467 -374.502)"/><path class="a" d="M298.344,379.907l-1.228-1.817v1.817H295.3V374.8h1.817v1.866l1.129-1.866h2.013l-1.719,2.5,1.915,2.6Z" transform="translate(-252.779 -374.604)"/><path class="a" d="M210.959,379.85c1.178,0,2.406-.442,2.406-1.768,0-1.227-1.031-1.522-1.817-1.669-.589-.147-.884-.2-.884-.393,0-.344.442-.344.589-.344a3.683,3.683,0,0,1,1.473.442l.442-1.228a5.123,5.123,0,0,0-2.111-.491c-1.228,0-2.16.589-2.16,1.768,0,.982.737,1.326,1.522,1.522.54.147.933.2.933.442,0,.295-.295.393-.54.393a2.82,2.82,0,0,1-1.522-.54l-.589,1.178A4.33,4.33,0,0,0,210.959,379.85Z" transform="translate(-208.7 -374.4)"/><path class="a" d="M309.159,379.85c1.178,0,2.406-.442,2.406-1.768,0-1.227-1.031-1.522-1.817-1.669-.589-.147-.884-.2-.884-.393,0-.344.442-.344.589-.344a3.683,3.683,0,0,1,1.473.442l.442-1.228a5.123,5.123,0,0,0-2.111-.491c-1.228,0-2.16.589-2.16,1.768,0,.982.737,1.326,1.522,1.522.54.147.933.2.933.442,0,.295-.295.393-.54.393a2.819,2.819,0,0,1-1.522-.54l-.589,1.178A4.2,4.2,0,0,0,309.159,379.85Z" transform="translate(-258.683 -374.4)"/><g transform="translate(17.627 0.196)"><path class="a" d="M248.479,378.041a1.582,1.582,0,0,0,.982-1.473c0-1.228-.835-1.768-2.062-1.768h-2.8V380h1.817v-1.522h.442l.933,1.522h1.964Zm-.835-1.522a.515.515,0,0,1-.54.54h-.638v-1.08h.638a.491.491,0,0,1,.54.54Z" transform="translate(-244.6 -374.8)"/></g><g transform="translate(24.109 0.147)"><path class="a" d="M261.532,377.253a1.1,1.1,0,0,0,1.031-1.178c0-.884-.638-1.375-1.817-1.375H257.8v5.2h2.848c1.375,0,2.062-.442,2.062-1.473A1.2,1.2,0,0,0,261.532,377.253Zm-2.013-1.424h.638c.344,0,.54.147.54.442h0c0,.295-.246.442-.54.442h-.638Zm1.277,2.455c0,.344-.245.442-.589.442h-.638v-.982h.638c.344.049.589.245.589.54Z" transform="translate(-257.8 -374.7)"/></g><g transform="translate(53.471 0.147)"><path class="a" d="M318.091,375.682h-.147v-.835H317.6V374.7h.737v.147h-.344l.1.835Z" transform="translate(-317.6 -374.7)"/><path class="a" d="M319.84,375.537h0l.295-.737h.246v.982h-.147V375h0l-.344.786h-.1l-.344-.786h0v.786H319.3V374.8h.245Z" transform="translate(-318.465 -374.751)"/></g></g></g><g transform="translate(20.3 372)"><g transform="translate(46.499 5.205)"><path class="b" d="M147.161,396.152s-.245-.245-.589-.638a1.468,1.468,0,0,1-.393-1.031V382.6h-4.517v9.526a1.314,1.314,0,0,1-1.424,1.129,1.045,1.045,0,0,1-1.129-1.08V382.6h-7.414c-2.406,0-4.615.393-5.45,2.357l-.442-1.768a.859.859,0,0,0-.884-.589h-7.856c-.1,0-.147.049-.1.147a4.107,4.107,0,0,1,.589.638,1.7,1.7,0,0,1,.344,1.424L115,396.25h4.174l.589-2.5h4.026l.638,2.5h5.5c2.259,0,4.075-.245,5.008-1.62.687,1.277,2.111,1.915,4.665,1.669a2.644,2.644,0,0,0,2.111-1.178l.245.491a.92.92,0,0,0,.884.589h4.174c.2.1.245.049.147-.049M120.5,391.291l1.375-5.6,1.375,5.6Z" transform="translate(-115 -382.6)"/><path class="c" d="M135.877,387.549h0v.1l.786.737h0v-.049c0-.147.049-.246.049-.393h0l-.737-.442c0,.049-.049,0-.1.049" transform="translate(-125.615 -385.094)"/><path class="c" d="M134.377,389.716l1.473.982h0v-.442h0v-.049h0l-1.375-.54c0-.049-.049-.049-.1.049h0" transform="translate(-124.852 -386.18)"/><path class="c" d="M133.249,391.847l2.357,1.031h.049v-.049a3.849,3.849,0,0,1-.245-.687h0L133.3,391.7a.152.152,0,0,0-.1.049.171.171,0,0,0,.049.1" transform="translate(-124.264 -387.232)"/><path class="c" d="M141.089,398.223c0-.982-1.129-1.326-2.357-1.817-1.277-.442-2.8-.982-3.486-2.21h0l-2.75-.2s-.1,0-.1.049a.171.171,0,0,0,.049.1l2.8.687a.048.048,0,0,1,.049.049l-.049.049-2.9.295s-.049,0-.049.1a.172.172,0,0,0,.049.1l2.9.295h.049a.048.048,0,0,1-.049.049l-2.75.687a.171.171,0,0,0-.049.1c0,.049.1.049.1.049l2.9-.2h.049v.049l-2.6,1.129a.172.172,0,0,0-.049.1c0,.049.1.049.1.049l2.8-.589h.049v.049l-2.308,1.522a.068.068,0,0,0,0,.1.152.152,0,0,0,.1.049l2.6-1.08h.049v.049l-2.013,1.866a.069.069,0,1,0,.1.1l2.357-1.424h.049c.049,0,0,.049,0,.049l-1.62,2.111s-.049.049.049.1a.068.068,0,0,0,.1,0l2.062-1.817h.049c.049,0,0,.049,0,.049l-1.178,2.357a.152.152,0,0,0,.049.1.068.068,0,0,0,.1,0l1.719-2.111a7.238,7.238,0,0,0,.933.295,2.742,2.742,0,0,0,1.964-.442,6.007,6.007,0,0,0,.147-.835" transform="translate(-123.806 -388.402)"/><path class="c" d="M156.986,406.184l-.638-.884c-.049.147-.147.393-.147.393l.638.54s.049.049.147-.049h0" transform="translate(-135.97 -394.154)"/><path class="c" d="M158.275,404.077l-1.326-1.277a5.167,5.167,0,0,1-.049.589l1.277.786a.068.068,0,0,0,.1,0c.049-.1,0-.1,0-.1" transform="translate(-136.327 -392.882)"/><path class="c" d="M159.011,401.975,156.9,400.6a5.618,5.618,0,0,1,.049.737l2.013.786a.152.152,0,0,0,.1-.049.171.171,0,0,0-.049-.1" transform="translate(-136.327 -391.762)"/><path class="c" d="M153.833,390.775h0c-.1-.049-.1-.1-.1-.1l-2.848-.295h-.049l2.8-.687a.048.048,0,0,0,.049-.049V389.6c0-.049-.049-.049-.1-.049s-2.848.2-2.848.2h0l2.6-1.129.049-.049v-.049c0-.049-.1-.049-.1-.049-.049,0-2.8.638-2.8.638h-.049l2.308-1.522.049-.049h0a.152.152,0,0,0-.1-.049c-.049,0-2.6,1.08-2.6,1.08h-.049l2.013-1.866a.048.048,0,0,0,.049-.049V386.6a.068.068,0,0,0-.1,0l-2.357,1.424h-.049s1.522-2.013,1.571-2.111l.049-.049a.048.048,0,0,0-.049-.049s-.1-.049-.1,0c-.049.049-2.062,1.817-2.062,1.817h-.049l1.178-2.357s.049-.1-.049-.1a.068.068,0,0,0-.1,0l-1.719,2.111a4.882,4.882,0,0,0-1.669-.393,2.457,2.457,0,0,0-1.62.442.951.951,0,0,0-.295.638c0,.393.246.638.638.982.442.246.982.442,1.522.687a10.316,10.316,0,0,1,2.357,1.129,3.358,3.358,0,0,1,1.473,2.111l2.651.589a.152.152,0,0,0,.1-.049h0l-.049-.049-2.553-1.129h.049s2.75.2,2.9.2a.152.152,0,0,0,.1-.049v-.049l-.049-.049-2.75-.687h0a.048.048,0,0,1,.049-.049h0l2.848-.295h.049c-.2-.442-.2-.442-.2-.491" transform="translate(-130.117 -383.901)"/><path class="b" d="M180.582,384.417a.835.835,0,1,1,.835-.835.828.828,0,0,1-.835.835m0-1.817a1.018,1.018,0,0,0-.982.982.982.982,0,1,0,1.964,0A.955.955,0,0,0,180.582,382.6Zm-.344.393h.344a.414.414,0,0,1,.344.1.42.42,0,0,1,.147.295.276.276,0,0,1-.245.295l.245.442h-.295l-.246-.442h-.1v.442h-.147l-.049-1.129Zm.2.2v.344h.2a.182.182,0,0,0,.1-.344Z" transform="translate(-147.881 -382.6)"/></g><line class="d" y1="25.582" transform="translate(35.009)"/><g transform="translate(0 1.178)"><g transform="translate(0.982 8.838)"><path class="e" d="M23.871,401.315l-.2-1.228h0l-.1,1.228-.295.049-.491-1.178h0l.246,1.227-.393.049-.344-1.768.491-.1.442,1.129h0l.1-1.228.54-.1.344,1.768Z" transform="translate(-22.3 -395.963)"/><path class="e" d="M27.482,400.868l-.147-.344-.442.1v.344l-.393.1.147-1.866.491-.1.737,1.719Zm-.491-1.326h0l-.049.786.344-.049Z" transform="translate(-24.438 -395.81)"/><path class="e" d="M29.93,399.124c-.1-.049-.2-.1-.246-.049a.172.172,0,0,0-.147.246c0,.1.1.147.295.2s.442.147.442.442a.579.579,0,0,1-.442.687.6.6,0,0,1-.54-.1l.147-.344a.71.71,0,0,0,.344.1c.1,0,.147-.1.147-.246,0-.1-.1-.147-.295-.2a.475.475,0,0,1-.442-.442.537.537,0,0,1,.442-.638c.2-.049.393,0,.442.1Z" transform="translate(-25.805 -395.638)"/><path class="e" d="M31.786,398.542l.246,1.424-.393.049-.246-1.424-.344.049L31,398.3l1.031-.2.049.344Z" transform="translate(-26.728 -395.301)"/><path class="e" d="M33.744,399.815l-.344-1.768.835-.147.049.393-.442.1.049.344.442-.1.049.344-.442.1.049.393.491-.1.049.393Z" transform="translate(-27.95 -395.199)"/><path class="e" d="M36.729,399.258l-.393-.638h-.147l.147.687-.393.049-.344-1.768.54-.1a.521.521,0,0,1,.638.442c.049.295-.049.442-.2.491l.442.737Zm-.491-1.375h-.147l.1.442h.147c.1,0,.2-.1.2-.295A.219.219,0,0,0,36.238,397.883Z" transform="translate(-29.07 -394.986)"/><path class="e" d="M39.744,398.666,39.4,396.9l.442-.1.246,1.375.442-.1.049.393Z" transform="translate(-31.004 -394.64)"/><path class="e" d="M42.509,398.2c-.442.1-.737-.295-.835-.835s.1-.982.491-1.08.737.246.835.786C43.147,397.707,42.951,398.149,42.509,398.2Zm-.245-1.473c-.2.049-.246.295-.2.589.049.344.2.491.393.491.2-.049.246-.295.2-.589S42.46,396.676,42.263,396.725Z" transform="translate(-32.148 -394.368)"/><path class="e" d="M45.758,397.647c-.442.1-.786-.246-.884-.786s.1-.982.491-1.08c.246-.049.442,0,.491.147l-.2.344c-.1-.1-.147-.1-.295-.1-.246.049-.295.344-.246.589.049.295.2.54.442.491.049,0,.1-.049.147-.049l-.049-.344-.147.049-.049-.393.54-.1.2.933A.594.594,0,0,1,45.758,397.647Z" transform="translate(-33.777 -394.111)"/><path class="e" d="M48.509,397.1c-.442.1-.737-.295-.835-.835s.1-.982.491-1.08c.442-.1.737.245.835.786C49.1,396.656,48.9,397.049,48.509,397.1Zm-.246-1.473c-.2.049-.246.295-.2.589.049.344.2.491.393.491.2-.049.246-.295.2-.589C48.558,395.821,48.411,395.625,48.263,395.625Z" transform="translate(-35.202 -393.808)"/><path class="e" d="M52.486,396.415l-.442.1.295-1.522-.589.1L51.7,394.7l1.031-.2.049.295Z" transform="translate(-37.264 -393.469)"/><path class="e" d="M54.946,396.162H54.7l.147-2.062h.246Z" transform="translate(-38.791 -393.265)"/><path class="e" d="M56.625,394.973l-.295.442.54-.1.049.344-1.08.2-.049-.393.442-.687a.911.911,0,0,0,.1-.344c0-.1-.1-.2-.2-.147q-.147,0-.147.295l-.393.049a.537.537,0,0,1,.442-.638.46.46,0,0,1,.589.442C56.87,394.58,56.772,394.825,56.625,394.973Z" transform="translate(-39.243 -393.205)"/><path class="e" d="M59.393,395.254c-.442.1-.687-.442-.737-.835-.1-.442-.049-.933.442-1.031.442-.1.687.442.737.835C59.884,394.664,59.835,395.156,59.393,395.254Zm-.295-1.473c-.147.049-.147.393-.1.589.049.245.147.54.295.54.147-.049.147-.393.1-.589C59.344,394.075,59.3,393.732,59.1,393.781Z" transform="translate(-40.784 -392.897)"/><path class="e" d="M61.837,394.917l-.246-1.277-.246.245-.246-.295.442-.442.393-.049.344,1.768Z" transform="translate(-42.049 -392.756)"/><path class="e" d="M65.08,393.824l.049.393-.393.049-.049-.393-.638.1L64,393.677l.344-1.178.442-.1.2,1.08.2-.049.049.344Zm-.54-.933h0l-.2.737.344-.049Z" transform="translate(-43.525 -392.4)"/></g><circle class="f" cx="11.588" cy="11.588" r="11.588" transform="translate(0.295 0.049)"/><path class="g" d="M33.312,379.457a10.336,10.336,0,0,0-1.178-.1,11.714,11.714,0,0,0-1.178.1c-.049,0-.1-.049-.049-.1s1.228-.933,1.228-.933,1.178.884,1.228.933S33.361,379.507,33.312,379.457ZM31.348,385.2s-.049,0-.1.1c.246.2.442.589.933.589s.687-.393.933-.589c0-.049-.1-.1-.1-.1a3.343,3.343,0,0,1-.835.1A2.51,2.51,0,0,1,31.348,385.2Zm.835-.687c-.147,0-.2-.049-.295-.049a.733.733,0,0,0-.344.147c0,.049,0,.049.049.1a1.74,1.74,0,0,0,.54.147,1.74,1.74,0,0,0,.54-.147c.049-.049.049-.049.049-.1a.733.733,0,0,0-.344-.147C32.33,384.417,32.33,384.515,32.182,384.515Zm11.539,2.16a4.838,4.838,0,0,1-.1.835c-1.277.246-1.768-.933-3.093-.884a4.672,4.672,0,0,1,.2.884c1.129,0,1.522,1.031,2.8.884a5.179,5.179,0,0,1-.246.933c-.982.1-1.277-.884-2.455-.835v.736c.982,0,1.228.884,2.16.835a7.556,7.556,0,0,1-.393.933c-.638-.049-.884-.884-1.915-.835-.049.246-.049.442-.1.638.884-.049,1.08.737,1.669.786-.147.295-.344.54-.491.835-.393-.2-.687-.786-1.375-.835a3.618,3.618,0,0,0,.2-.687,3.155,3.155,0,0,1-1.964-.786c.2-1.129-1.522-2.21-1.522-3,0-.884.442-1.326.442-2.553a3.638,3.638,0,0,0-1.08-2.455,1.529,1.529,0,0,0-.442-.344,4.1,4.1,0,0,1,1.031,2.6c0,1.129-.491,1.719-.491,2.75s1.473,1.915,1.473,2.946a3.593,3.593,0,0,1-.54,1.62,3.4,3.4,0,0,0,2.111,1.031c.2,0,.295-.049.344-.2s.1-.245.147-.393c.589.049.884.54,1.228.786l-.589.737a2.322,2.322,0,0,0-.982-.786,4.428,4.428,0,0,0-.246.442c.393.1.638.491.835.737a8.148,8.148,0,0,1-.687.638,2.8,2.8,0,0,0-.638-.687c-.1.147-.2.245-.295.393a1.639,1.639,0,0,1,.54.638,4.346,4.346,0,0,1-.835.589c-.147-1.178-1.768-2.013-1.277-3.339a1.765,1.765,0,0,0-.344.884c0,.982,1.08,1.768,1.129,2.75a7.269,7.269,0,0,0-.638.393c-.049-1.08-1.178-2.259-1.178-3.142,0-.982,1.277-2.013,1.277-3.142s-1.473-2.013-1.473-3c0-1.031.638-1.62.638-2.946a3.319,3.319,0,0,0-1.178-2.553,3.445,3.445,0,0,0-.442-.295,3.924,3.924,0,0,1,1.08,2.651c0,1.228-.737,1.915-.737,3.093,0,1.228,1.473,1.915,1.473,3s-1.326,2.111-1.326,3.241c0,1.08,1.228,2.111,1.228,3.339-.295.1-.491.246-.786.344.147-1.228-1.228-2.553-1.228-3.584,0-1.129,1.424-2.111,1.424-3.29,0-1.228-1.424-1.768-1.424-3s.884-1.964.884-3.29a3.306,3.306,0,0,0-1.277-2.651l-.049-.049c-.1-.049-.147,0-.1.1a3.581,3.581,0,0,1,.835,2.406c0,1.228-1.031,2.259-1.031,3.535,0,1.424,1.326,1.866,1.326,3s-1.424,2.111-1.424,3.388c0,1.178,1.375,2.455,1.178,3.781a5.136,5.136,0,0,1-.835.2c.295-1.669-1.129-2.9-1.129-3.928,0-1.228,1.522-2.21,1.522-3.388,0-1.129-1.08-1.424-1.228-2.553a.268.268,0,0,0-.344-.245,3.37,3.37,0,0,1-.933.2,2.991,2.991,0,0,1-.933-.2c-.2-.049-.295.1-.344.245-.147,1.129-1.228,1.473-1.228,2.553,0,1.178,1.522,2.21,1.522,3.388,0,1.129-1.326,2.259-1.129,3.928a5.136,5.136,0,0,1-.835-.2c-.246-1.326,1.178-2.651,1.178-3.781,0-1.227-1.424-2.16-1.424-3.388,0-1.178,1.326-1.571,1.326-3,0-1.228-1.031-2.21-1.031-3.535a3.581,3.581,0,0,1,.835-2.406c.049-.049,0-.147-.1-.1l-.049.049a3.306,3.306,0,0,0-1.277,2.651c0,1.375.884,2.111.884,3.29,0,1.228-1.424,1.817-1.424,3,0,1.228,1.375,2.16,1.375,3.29,0,1.031-1.326,2.308-1.228,3.584a3.8,3.8,0,0,1-.786-.344c0-1.277,1.228-2.308,1.228-3.339,0-1.178-1.326-2.111-1.326-3.241s1.473-1.817,1.473-3c0-1.228-.737-1.915-.737-3.093a3.794,3.794,0,0,1,1.08-2.651l-.442.295a3.489,3.489,0,0,0-1.178,2.553c0,1.277.638,1.915.638,2.9,0,1.031-1.473,1.866-1.473,3,0,1.178,1.277,2.16,1.277,3.142,0,.884-1.129,2.111-1.178,3.142a7.276,7.276,0,0,1-.638-.393c.1-.982,1.129-1.768,1.129-2.75a1.6,1.6,0,0,0-.344-.884c.442,1.326-1.178,2.16-1.277,3.339-.295-.2-.54-.393-.835-.589a3.38,3.38,0,0,1,.54-.638c-.1-.147-.2-.246-.295-.393a1.711,1.711,0,0,0-.638.687,8.153,8.153,0,0,1-.687-.638c.2-.245.442-.638.835-.737a1.99,1.99,0,0,1-.246-.442,2.674,2.674,0,0,0-.982.786c-.2-.246-.393-.442-.589-.737.344-.246.589-.786,1.228-.786.049.147.1.246.147.393a.329.329,0,0,0,.344.2,3.652,3.652,0,0,0,2.111-1.031,3.19,3.19,0,0,1-.54-1.62c0-1.08,1.473-1.964,1.473-2.946,0-1.031-.491-1.62-.491-2.75a4.1,4.1,0,0,1,1.031-2.6,2.7,2.7,0,0,0-.442.344,3.638,3.638,0,0,0-1.08,2.455c0,1.178.442,1.669.442,2.553,0,.786-1.719,1.915-1.522,3a2.87,2.87,0,0,1-1.964.786c.049.245.147.442.2.687-.687.049-1.031.638-1.375.835a3.7,3.7,0,0,1-.491-.835c.589-.049.786-.884,1.669-.786a3.379,3.379,0,0,1-.1-.638c-1.031-.049-1.228.786-1.915.835a5.322,5.322,0,0,1-.393-.933c.933.049,1.228-.835,2.16-.835v-.737c-1.129-.049-1.473.933-2.455.835a6.54,6.54,0,0,1-.246-.933c1.277.147,1.669-.884,2.8-.884a5.708,5.708,0,0,1,.2-.884c-1.326-.049-1.817,1.129-3.093.884-.049-.295-.049-.54-.1-.835,1.522.2,2.111-1.08,3.486-.933.147-.344.295-.638.442-.982-1.719-.344-2.308,1.178-3.928.933A11.725,11.725,0,0,1,31.986,374.4a11.562,11.562,0,0,1,11.539,11.244c-1.62.246-2.21-1.228-3.928-.933a4.331,4.331,0,0,1,.442.982C41.659,385.546,42.2,386.823,43.721,386.675Zm-16.547-4.861a2.9,2.9,0,0,0-2.8.295,3.21,3.21,0,0,0-1.228-2.013c-.1-.049-.2,0-.2.1.147,1.719-.884,3.241-2.111,4.566,1.277.393,2.357-1.277,4.026-.687A10.052,10.052,0,0,1,27.174,381.814Zm5.008-1.08a2.188,2.188,0,0,0-2.21,1.375c0,.049,0,.1.1.049a1.359,1.359,0,0,1,.638-.147,1.444,1.444,0,0,1,1.08.442,2.2,2.2,0,0,1,0,1.129c-.2-.049-.246-.2-.393-.2-.2,0-.344.147-.589.147s-.344-.147-.491-.147c-.246,0-.295.245-.295.491,0,1.228,1.129,2.848,2.259,2.848s2.259-1.669,2.259-2.848c0-.295-.049-.491-.295-.491a.75.75,0,0,1-.491.2c-.246,0-.393-.147-.54-.147-.246,0-.2.442-.442.442a1.9,1.9,0,0,1-.049-1.375,1.3,1.3,0,0,1,1.08-.442,1.359,1.359,0,0,1,.638.147c.1.049.1,0,.1-.049A2.706,2.706,0,0,0,32.182,380.734Zm1.719,1.719a1,1,0,0,0-.737.295v.2c.442-.147.884-.2,1.08.049a.424.424,0,0,0,.147-.295A.588.588,0,0,0,33.9,382.453Zm-3.781.54c.246-.245.687-.245,1.228-.049,0-.246-.442-.491-.835-.491-.344,0-.442.1-.442.295C29.973,382.845,29.973,382.944,30.12,382.993Zm7.365-4.026a4.013,4.013,0,0,0-2.16.835,8.167,8.167,0,0,1,.982-1.964,3.86,3.86,0,0,0-2.651,1.228l-.491-1.326,1.178-1.031-1.522-.1-.589-1.424-.589,1.424-1.669.049,1.178,1.031-.491,1.326a4.33,4.33,0,0,0-2.651-1.228,6.7,6.7,0,0,1,.982,1.964,4.013,4.013,0,0,0-2.16-.835,8.351,8.351,0,0,1,1.277,2.111.121.121,0,0,0,.2.049,9.133,9.133,0,0,1,3.83-.884,8.961,8.961,0,0,1,3.83.884c.1.049.2,0,.2-.049A18.374,18.374,0,0,1,37.485,378.966Zm1.866,5.107c1.669-.54,2.75,1.08,4.026.687-1.228-1.326-2.259-2.848-2.111-4.566,0-.1-.1-.147-.2-.1a3.086,3.086,0,0,0-1.228,2.013,3.167,3.167,0,0,0-2.8-.295A7.25,7.25,0,0,1,39.351,384.073Z" transform="translate(-20.3 -374.4)"/><g transform="translate(18.364 21.801)"><path class="g" d="M58.682,418.8a1.018,1.018,0,0,1,.982.982.955.955,0,0,1-.982.982,1.018,1.018,0,0,1-.982-.982A.984.984,0,0,1,58.682,418.8Zm0,1.768a.836.836,0,0,0,0-1.669.836.836,0,0,0,0,1.669Zm-.344-1.424h.442c.295,0,.393.1.393.344a.368.368,0,0,1-.295.344l.344.491h-.2l-.344-.442h-.2v.442h-.2l.049-1.178Zm.147.54h.2c.147,0,.295,0,.295-.2,0-.147-.147-.2-.246-.2h-.246Z" transform="translate(-57.7 -418.8)"/></g></g></g></g></svg>